<mxfile host="app.diagrams.net" modified="2022-01-18T00:00:11.998Z" agent="5.0 (Macintosh; Intel Mac OS X 10_15_7) AppleWebKit/537.36 (KHTML, like Gecko) Chrome/97.0.4692.71 Safari/537.36" etag="IwlWyUo_S8SaipGHlanC" version="16.2.7" type="github">
  <diagram id="2DpKcrszy_h0_hMXwlpR" name="MCD-Data-Lake">
    <mxGraphModel dx="1186" dy="796" grid="1" gridSize="10" guides="1" tooltips="1" connect="1" arrows="1" fold="1" page="1" pageScale="1" pageWidth="850" pageHeight="1100" math="0" shadow="0">
      <root>
        <mxCell id="0" />
        <mxCell id="1" parent="0" />
        <mxCell id="o-3ELtx8tMzShu5-paNh-1" value="Módulo de Ciência de Dados" style="swimlane;" vertex="1" parent="1">
          <mxGeometry x="150" y="80" width="670" height="480" as="geometry" />
        </mxCell>
        <mxCell id="o-3ELtx8tMzShu5-paNh-3" value="Caso de Uso: Data Lake para DW e BI (AWS)" style="swimlane;" vertex="1" parent="o-3ELtx8tMzShu5-paNh-1">
          <mxGeometry x="70" y="30" width="600" height="440" as="geometry" />
        </mxCell>
        <mxCell id="o-3ELtx8tMzShu5-paNh-6" value="Visualiza &lt;br&gt;Gráficos e Tabela com Ferramenta de &lt;br&gt;DW / BI" style="ellipse;whiteSpace=wrap;html=1;align=center;newEdgeStyle={&quot;edgeStyle&quot;:&quot;entityRelationEdgeStyle&quot;,&quot;startArrow&quot;:&quot;none&quot;,&quot;endArrow&quot;:&quot;none&quot;,&quot;segment&quot;:10,&quot;curved&quot;:1};treeFolding=1;treeMoving=1;" vertex="1" parent="o-3ELtx8tMzShu5-paNh-3">
          <mxGeometry x="50" y="50" width="140" height="80" as="geometry" />
        </mxCell>
        <mxCell id="o-3ELtx8tMzShu5-paNh-38" style="edgeStyle=orthogonalEdgeStyle;rounded=0;orthogonalLoop=1;jettySize=auto;html=1;entryX=1.05;entryY=0.575;entryDx=0;entryDy=0;entryPerimeter=0;exitX=0;exitY=0.5;exitDx=0;exitDy=0;" edge="1" parent="o-3ELtx8tMzShu5-paNh-3" source="o-3ELtx8tMzShu5-paNh-21" target="o-3ELtx8tMzShu5-paNh-32">
          <mxGeometry relative="1" as="geometry">
            <Array as="points">
              <mxPoint x="340" y="300" />
              <mxPoint x="340" y="234" />
            </Array>
          </mxGeometry>
        </mxCell>
        <mxCell id="o-3ELtx8tMzShu5-paNh-41" style="edgeStyle=orthogonalEdgeStyle;rounded=0;orthogonalLoop=1;jettySize=auto;html=1;entryX=1;entryY=0.5;entryDx=0;entryDy=0;entryPerimeter=0;startArrow=none;startFill=0;exitX=0;exitY=0.5;exitDx=0;exitDy=0;" edge="1" parent="o-3ELtx8tMzShu5-paNh-3" source="o-3ELtx8tMzShu5-paNh-21" target="o-3ELtx8tMzShu5-paNh-34">
          <mxGeometry relative="1" as="geometry">
            <mxPoint x="330" y="316" as="sourcePoint" />
            <Array as="points">
              <mxPoint x="340" y="300" />
              <mxPoint x="340" y="371" />
            </Array>
          </mxGeometry>
        </mxCell>
        <mxCell id="o-3ELtx8tMzShu5-paNh-21" value="Bancos de Dados / Planilhas" style="swimlane;" vertex="1" parent="o-3ELtx8tMzShu5-paNh-3">
          <mxGeometry x="360" y="200" width="220" height="200" as="geometry" />
        </mxCell>
        <mxCell id="o-3ELtx8tMzShu5-paNh-22" value="" style="shape=cylinder3;whiteSpace=wrap;html=1;boundedLbl=1;backgroundOutline=1;size=15;strokeWidth=2;" vertex="1" parent="o-3ELtx8tMzShu5-paNh-21">
          <mxGeometry x="10" y="40" width="40" height="60" as="geometry" />
        </mxCell>
        <mxCell id="o-3ELtx8tMzShu5-paNh-23" value="" style="shape=image;html=1;verticalAlign=top;verticalLabelPosition=bottom;labelBackgroundColor=#ffffff;imageAspect=0;aspect=fixed;image=https://cdn2.iconfinder.com/data/icons/essential-web-2/50/spreadsheet-table-document-data-grid-128.png;strokeWidth=1;" vertex="1" parent="o-3ELtx8tMzShu5-paNh-21">
          <mxGeometry x="150" y="40" width="60" height="60" as="geometry" />
        </mxCell>
        <mxCell id="o-3ELtx8tMzShu5-paNh-24" value="" style="shape=cylinder3;whiteSpace=wrap;html=1;boundedLbl=1;backgroundOutline=1;size=15;strokeWidth=2;" vertex="1" parent="o-3ELtx8tMzShu5-paNh-21">
          <mxGeometry x="80" y="40" width="40" height="60" as="geometry" />
        </mxCell>
        <mxCell id="o-3ELtx8tMzShu5-paNh-25" value="" style="shape=cylinder3;whiteSpace=wrap;html=1;boundedLbl=1;backgroundOutline=1;size=15;strokeWidth=2;" vertex="1" parent="o-3ELtx8tMzShu5-paNh-21">
          <mxGeometry x="10" y="120" width="40" height="60" as="geometry" />
        </mxCell>
        <mxCell id="o-3ELtx8tMzShu5-paNh-26" value="" style="shape=image;html=1;verticalAlign=top;verticalLabelPosition=bottom;labelBackgroundColor=#ffffff;imageAspect=0;aspect=fixed;image=https://cdn2.iconfinder.com/data/icons/essential-web-2/50/spreadsheet-table-document-data-grid-128.png;strokeWidth=1;" vertex="1" parent="o-3ELtx8tMzShu5-paNh-21">
          <mxGeometry x="150" y="120" width="60" height="60" as="geometry" />
        </mxCell>
        <mxCell id="o-3ELtx8tMzShu5-paNh-27" value="" style="shape=cylinder3;whiteSpace=wrap;html=1;boundedLbl=1;backgroundOutline=1;size=15;strokeWidth=2;" vertex="1" parent="o-3ELtx8tMzShu5-paNh-21">
          <mxGeometry x="80" y="120" width="40" height="60" as="geometry" />
        </mxCell>
        <mxCell id="o-3ELtx8tMzShu5-paNh-39" style="edgeStyle=orthogonalEdgeStyle;rounded=0;orthogonalLoop=1;jettySize=auto;html=1;" edge="1" parent="o-3ELtx8tMzShu5-paNh-3" source="o-3ELtx8tMzShu5-paNh-32" target="o-3ELtx8tMzShu5-paNh-33">
          <mxGeometry relative="1" as="geometry" />
        </mxCell>
        <mxCell id="o-3ELtx8tMzShu5-paNh-32" value="AWS Glue&lt;br&gt;Crawler" style="sketch=0;outlineConnect=0;fontColor=#232F3E;gradientColor=none;fillColor=#4D27AA;strokeColor=none;dashed=0;verticalLabelPosition=bottom;verticalAlign=top;align=center;html=1;fontSize=12;fontStyle=0;aspect=fixed;pointerEvents=1;shape=mxgraph.aws4.glue_crawlers;" vertex="1" parent="o-3ELtx8tMzShu5-paNh-3">
          <mxGeometry x="270" y="211" width="40" height="40" as="geometry" />
        </mxCell>
        <mxCell id="o-3ELtx8tMzShu5-paNh-40" style="edgeStyle=orthogonalEdgeStyle;rounded=0;orthogonalLoop=1;jettySize=auto;html=1;entryX=0.5;entryY=0;entryDx=0;entryDy=0;entryPerimeter=0;startArrow=classic;startFill=1;" edge="1" parent="o-3ELtx8tMzShu5-paNh-3" source="o-3ELtx8tMzShu5-paNh-33" target="o-3ELtx8tMzShu5-paNh-34">
          <mxGeometry relative="1" as="geometry" />
        </mxCell>
        <mxCell id="o-3ELtx8tMzShu5-paNh-42" style="edgeStyle=orthogonalEdgeStyle;rounded=0;orthogonalLoop=1;jettySize=auto;html=1;entryX=1;entryY=0.25;entryDx=0;entryDy=0;entryPerimeter=0;startArrow=none;startFill=0;exitX=-0.055;exitY=0.775;exitDx=0;exitDy=0;exitPerimeter=0;" edge="1" parent="o-3ELtx8tMzShu5-paNh-3" source="o-3ELtx8tMzShu5-paNh-33" target="o-3ELtx8tMzShu5-paNh-35">
          <mxGeometry relative="1" as="geometry" />
        </mxCell>
        <mxCell id="o-3ELtx8tMzShu5-paNh-33" value="AWS Glue&lt;br&gt;Data Catalog" style="sketch=0;outlineConnect=0;fontColor=#232F3E;gradientColor=none;fillColor=#4D27AA;strokeColor=none;dashed=0;verticalLabelPosition=bottom;verticalAlign=top;align=center;html=1;fontSize=12;fontStyle=0;aspect=fixed;pointerEvents=1;shape=mxgraph.aws4.glue_data_catalog;" vertex="1" parent="o-3ELtx8tMzShu5-paNh-3">
          <mxGeometry x="176.72" y="211" width="36.92" height="40" as="geometry" />
        </mxCell>
        <mxCell id="o-3ELtx8tMzShu5-paNh-43" style="edgeStyle=orthogonalEdgeStyle;rounded=0;orthogonalLoop=1;jettySize=auto;html=1;exitX=0;exitY=0.75;exitDx=0;exitDy=0;exitPerimeter=0;entryX=1;entryY=0.75;entryDx=0;entryDy=0;entryPerimeter=0;startArrow=none;startFill=0;" edge="1" parent="o-3ELtx8tMzShu5-paNh-3" source="o-3ELtx8tMzShu5-paNh-34" target="o-3ELtx8tMzShu5-paNh-35">
          <mxGeometry relative="1" as="geometry" />
        </mxCell>
        <mxCell id="o-3ELtx8tMzShu5-paNh-34" value="AWS Glue&lt;br&gt;ETL Job" style="sketch=0;points=[[0,0,0],[0.25,0,0],[0.5,0,0],[0.75,0,0],[1,0,0],[0,1,0],[0.25,1,0],[0.5,1,0],[0.75,1,0],[1,1,0],[0,0.25,0],[0,0.5,0],[0,0.75,0],[1,0.25,0],[1,0.5,0],[1,0.75,0]];outlineConnect=0;fontColor=#232F3E;gradientColor=#945DF2;gradientDirection=north;fillColor=#5A30B5;strokeColor=#ffffff;dashed=0;verticalLabelPosition=bottom;verticalAlign=top;align=center;html=1;fontSize=12;fontStyle=0;aspect=fixed;shape=mxgraph.aws4.resourceIcon;resIcon=mxgraph.aws4.glue;" vertex="1" parent="o-3ELtx8tMzShu5-paNh-3">
          <mxGeometry x="171" y="346" width="49" height="49" as="geometry" />
        </mxCell>
        <mxCell id="o-3ELtx8tMzShu5-paNh-35" value="AWS S3&lt;br&gt;Bucket" style="sketch=0;points=[[0,0,0],[0.25,0,0],[0.5,0,0],[0.75,0,0],[1,0,0],[0,1,0],[0.25,1,0],[0.5,1,0],[0.75,1,0],[1,1,0],[0,0.25,0],[0,0.5,0],[0,0.75,0],[1,0.25,0],[1,0.5,0],[1,0.75,0]];outlineConnect=0;fontColor=#232F3E;gradientColor=#60A337;gradientDirection=north;fillColor=#277116;strokeColor=#ffffff;dashed=0;verticalLabelPosition=bottom;verticalAlign=top;align=center;html=1;fontSize=12;fontStyle=0;aspect=fixed;shape=mxgraph.aws4.resourceIcon;resIcon=mxgraph.aws4.s3;" vertex="1" parent="o-3ELtx8tMzShu5-paNh-3">
          <mxGeometry x="20" y="346" width="50" height="50" as="geometry" />
        </mxCell>
        <mxCell id="o-3ELtx8tMzShu5-paNh-44" style="edgeStyle=orthogonalEdgeStyle;rounded=0;orthogonalLoop=1;jettySize=auto;html=1;exitX=1;exitY=0.25;exitDx=0;exitDy=0;exitPerimeter=0;entryX=-0.082;entryY=0.2;entryDx=0;entryDy=0;entryPerimeter=0;startArrow=none;startFill=0;" edge="1" parent="o-3ELtx8tMzShu5-paNh-3" source="o-3ELtx8tMzShu5-paNh-37" target="o-3ELtx8tMzShu5-paNh-33">
          <mxGeometry relative="1" as="geometry" />
        </mxCell>
        <mxCell id="o-3ELtx8tMzShu5-paNh-45" style="edgeStyle=orthogonalEdgeStyle;rounded=0;orthogonalLoop=1;jettySize=auto;html=1;exitX=0.5;exitY=1;exitDx=0;exitDy=0;exitPerimeter=0;entryX=0.5;entryY=0;entryDx=0;entryDy=0;entryPerimeter=0;startArrow=none;startFill=0;" edge="1" parent="o-3ELtx8tMzShu5-paNh-3" source="o-3ELtx8tMzShu5-paNh-37" target="o-3ELtx8tMzShu5-paNh-35">
          <mxGeometry relative="1" as="geometry" />
        </mxCell>
        <mxCell id="o-3ELtx8tMzShu5-paNh-37" value="Amazon Athena&lt;br&gt;SQL Queries" style="sketch=0;points=[[0,0,0],[0.25,0,0],[0.5,0,0],[0.75,0,0],[1,0,0],[0,1,0],[0.25,1,0],[0.5,1,0],[0.75,1,0],[1,1,0],[0,0.25,0],[0,0.5,0],[0,0.75,0],[1,0.25,0],[1,0.5,0],[1,0.75,0]];outlineConnect=0;fontColor=#232F3E;gradientColor=#945DF2;gradientDirection=north;fillColor=#5A30B5;strokeColor=#ffffff;dashed=0;verticalLabelPosition=bottom;verticalAlign=top;align=center;html=1;fontSize=12;fontStyle=0;aspect=fixed;shape=mxgraph.aws4.resourceIcon;resIcon=mxgraph.aws4.athena;" vertex="1" parent="o-3ELtx8tMzShu5-paNh-3">
          <mxGeometry x="20" y="206" width="50" height="50" as="geometry" />
        </mxCell>
        <mxCell id="o-3ELtx8tMzShu5-paNh-46" value="Ferramenta&lt;br&gt;DW / BI" style="sketch=0;aspect=fixed;pointerEvents=1;shadow=0;dashed=0;html=1;strokeColor=none;labelPosition=center;verticalLabelPosition=bottom;verticalAlign=top;align=center;fillColor=#00188D;shape=mxgraph.mscae.general.graph" vertex="1" parent="o-3ELtx8tMzShu5-paNh-3">
          <mxGeometry x="240" y="65" width="50" height="50" as="geometry" />
        </mxCell>
        <mxCell id="o-3ELtx8tMzShu5-paNh-48" value="" style="endArrow=block;startArrow=none;endFill=0;startFill=0;endSize=8;html=1;verticalAlign=bottom;dashed=1;labelBackgroundColor=none;rounded=0;entryX=0;entryY=0.5;entryDx=0;entryDy=0;exitX=1;exitY=0.5;exitDx=0;exitDy=0;entryPerimeter=0;" edge="1" parent="o-3ELtx8tMzShu5-paNh-3" source="o-3ELtx8tMzShu5-paNh-6" target="o-3ELtx8tMzShu5-paNh-46">
          <mxGeometry width="160" relative="1" as="geometry">
            <mxPoint x="-10" y="100" as="sourcePoint" />
            <mxPoint x="40" y="100" as="targetPoint" />
          </mxGeometry>
        </mxCell>
        <mxCell id="o-3ELtx8tMzShu5-paNh-49" value="" style="rounded=0;orthogonalLoop=1;jettySize=auto;html=1;endArrow=none;endFill=0;sketch=0;sourcePerimeterSpacing=0;targetPerimeterSpacing=0;exitX=0.5;exitY=1;exitDx=0;exitDy=0;exitPerimeter=0;" edge="1" target="o-3ELtx8tMzShu5-paNh-51" parent="o-3ELtx8tMzShu5-paNh-3" source="o-3ELtx8tMzShu5-paNh-46">
          <mxGeometry relative="1" as="geometry">
            <mxPoint x="80" y="155" as="sourcePoint" />
            <Array as="points">
              <mxPoint x="265" y="155" />
              <mxPoint x="45" y="155" />
            </Array>
          </mxGeometry>
        </mxCell>
        <mxCell id="o-3ELtx8tMzShu5-paNh-50" value="" style="rounded=0;orthogonalLoop=1;jettySize=auto;html=1;endArrow=halfCircle;endFill=0;entryX=0.5;entryY=0.5;endSize=6;strokeWidth=1;sketch=0;exitX=0.5;exitY=0;exitDx=0;exitDy=0;exitPerimeter=0;" edge="1" target="o-3ELtx8tMzShu5-paNh-51" parent="o-3ELtx8tMzShu5-paNh-3" source="o-3ELtx8tMzShu5-paNh-37">
          <mxGeometry relative="1" as="geometry">
            <mxPoint x="120" y="155" as="sourcePoint" />
            <Array as="points" />
          </mxGeometry>
        </mxCell>
        <mxCell id="o-3ELtx8tMzShu5-paNh-51" value="" style="ellipse;whiteSpace=wrap;html=1;align=center;aspect=fixed;resizable=0;points=[];outlineConnect=0;sketch=0;strokeWidth=2;" vertex="1" parent="o-3ELtx8tMzShu5-paNh-3">
          <mxGeometry x="40" y="180" width="10" height="10" as="geometry" />
        </mxCell>
        <mxCell id="o-3ELtx8tMzShu5-paNh-18" value="Supervisor" style="shape=umlActor;verticalLabelPosition=bottom;verticalAlign=top;html=1;outlineConnect=0;" vertex="1" parent="o-3ELtx8tMzShu5-paNh-1">
          <mxGeometry x="20" y="100" width="30" height="60" as="geometry" />
        </mxCell>
        <mxCell id="o-3ELtx8tMzShu5-paNh-20" value="" style="endArrow=block;startArrow=none;endFill=0;startFill=0;endSize=8;html=1;verticalAlign=bottom;dashed=1;labelBackgroundColor=none;rounded=0;entryX=0;entryY=0.5;entryDx=0;entryDy=0;exitX=1;exitY=0.3333333333333333;exitDx=0;exitDy=0;exitPerimeter=0;" edge="1" parent="o-3ELtx8tMzShu5-paNh-1" source="o-3ELtx8tMzShu5-paNh-18" target="o-3ELtx8tMzShu5-paNh-6">
          <mxGeometry width="160" relative="1" as="geometry">
            <mxPoint x="60" y="270" as="sourcePoint" />
            <mxPoint x="120" y="270" as="targetPoint" />
          </mxGeometry>
        </mxCell>
      </root>
    </mxGraphModel>
  </diagram>
</mxfile>
